# xmcd CD database file
#
# Track frame offsets:
#	150
#	13397
#	22102
#	35942
#	47407
#	58830
#	70547
#	80340
#	93670
#	106750
#	123537
#	133752
#	148157
#	161732
#	175052
#	187847
#	208187
#	220702
#	235925
#	250142
#
# Disc length: 3516 seconds
#
# Revision: 1
# Processed by: cddbd v1.5.2PL0 Copyright (c) Steve Scherf et al.
# Submitted via: CDex 1.51
#
DISCID=240dba14
DTITLE=Gilberto e Gilmar - Raízes sertanejas
DYEAR=1900
DGENRE=Country
TTITLE0=Só mais uma vez
TTITLE1=Quem ama não vê defeito
TTITLE2=Capa de revista
TTITLE3=Cheiro de mulher
TTITLE4=Assino com x
TTITLE5=Fome de amor
TTITLE6=Amor proibido
TTITLE7=Sufoco
TTITLE8=O abajur
TTITLE9=Eu sempre vou lembrar de voce
TTITLE10=Da boca pra fora
TTITLE11=Triste
TTITLE12=Voce não nasceu pra mim
TTITLE13=Fuscão preto
TTITLE14=Música da saudade
TTITLE15=O mais importante é o verdadeiro amor
TTITLE16=Pobre de quem ama na vida
TTITLE17=O trem das 7
TTITLE18=Palavras de amor
TTITLE19=Paixão
EXTD=
EXTT0=
EXTT1=
EXTT2=
EXTT3=
EXTT4=
EXTT5=
EXTT6=
EXTT7=
EXTT8=
EXTT9=
EXTT10=
EXTT11=
EXTT12=
EXTT13=
EXTT14=
EXTT15=
EXTT16=
EXTT17=
EXTT18=
EXTT19=
PLAYORDER=
